<svg width="38" height="38" viewBox="0 0 38 38" fill="none" xmlns="http://www.w3.org/2000/svg">
<path d="M19 0C8.50733 0 0 8.51039 0 19C0 29.4957 8.50733 38 19 38C29.4927 38 38 29.4957 38 19C38 8.51039 29.4927 0 19 0ZM19 8.42742C20.7771 8.42742 22.2177 9.86805 22.2177 11.6452C22.2177 13.4223 20.7771 14.8629 19 14.8629C17.2229 14.8629 15.7823 13.4223 15.7823 11.6452C15.7823 9.86805 17.2229 8.42742 19 8.42742ZM23.2903 27.8871C23.2903 28.3948 22.8787 28.8065 22.371 28.8065H15.629C15.1213 28.8065 14.7097 28.3948 14.7097 27.8871V26.0484C14.7097 25.5407 15.1213 25.129 15.629 25.129H16.5484V20.2258H15.629C15.1213 20.2258 14.7097 19.8142 14.7097 19.3065V17.4677C14.7097 16.96 15.1213 16.5484 15.629 16.5484H20.5323C21.04 16.5484 21.4516 16.96 21.4516 17.4677V25.129H22.371C22.8787 25.129 23.2903 25.5407 23.2903 26.0484V27.8871Z" fill="black"/>
</svg>
