<svg width="38" height="36" viewBox="0 0 38 36" fill="none" xmlns="http://www.w3.org/2000/svg">
<path d="M37.1235 14.3261L20.2789 0.671056C19.7313 0.227141 19.0102 -0.0130986 18.2663 0.000551379C17.5224 0.0142013 16.8132 0.280685 16.2871 0.7443L0.795031 14.395L0 15.0955V35.2195H14.9286V22.6633H23.0714V35.2195H38V15.0367L37.1235 14.3261ZM18.3247 2.39171C18.3486 2.39171 18.3338 2.39627 18.3235 2.40516C18.3129 2.39627 18.3007 2.39171 18.3247 2.39171ZM35.2857 32.8278H25.7857V22.6633C25.7857 22.0289 25.4997 21.4206 24.9907 20.9721C24.4817 20.5236 23.7913 20.2716 23.0714 20.2716H14.9286C14.2087 20.2716 13.5183 20.5236 13.0093 20.9721C12.5003 21.4206 12.2143 22.0289 12.2143 22.6633V32.8278H2.71429V16.0862L18.3247 2.43543C18.3258 2.43454 18.3258 2.43371 18.3267 2.43282L35.2857 16.0862V32.8278Z" fill="black"/>
</svg>
