<svg width="41" height="41" viewBox="0 0 41 41" fill="none" xmlns="http://www.w3.org/2000/svg">
<path fill-rule="evenodd" clip-rule="evenodd" d="M27.9546 14.9091C27.9546 19.026 24.617 22.3636 20.5 22.3636C16.383 22.3636 13.0455 19.026 13.0455 14.9091C13.0455 10.792 16.383 7.45453 20.5 7.45453C24.617 7.45453 27.9546 10.792 27.9546 14.9091ZM24.2273 14.9091C24.2273 16.9676 22.5586 18.6363 20.5 18.6363C18.4414 18.6363 16.7727 16.9676 16.7727 14.9091C16.7727 12.8506 18.4414 11.1818 20.5 11.1818C22.5586 11.1818 24.2273 12.8506 24.2273 14.9091Z" fill="black"/>
<path fill-rule="evenodd" clip-rule="evenodd" d="M20.5 0C9.17817 0 0 9.17817 0 20.5C0 31.8218 9.17817 41 20.5 41C31.8218 41 41 31.8218 41 20.5C41 9.17817 31.8218 0 20.5 0ZM3.72727 20.5C3.72727 24.3954 5.05521 27.9806 7.28305 30.8277C10.3477 26.8157 15.1817 24.2273 20.6202 24.2273C25.988 24.2273 30.7671 26.749 33.8371 30.6723C35.9924 27.8507 37.2727 24.3249 37.2727 20.5C37.2727 11.2367 29.7634 3.72727 20.5 3.72727C11.2367 3.72727 3.72727 11.2367 3.72727 20.5ZM20.5 37.2727C16.4928 37.2727 12.8137 35.8674 9.92884 33.5227C12.2879 30.1559 16.197 27.9545 20.6202 27.9545C24.9884 27.9545 28.8552 30.1016 31.223 33.398C28.3159 35.8174 24.5778 37.2727 20.5 37.2727Z" fill="black"/>
</svg>
