<svg width="31" height="31" viewBox="0 0 31 31" fill="none" xmlns="http://www.w3.org/2000/svg">
<path d="M30.2546 27.8288L24.4463 22.0375C26.3203 19.65 27.3371 16.7018 27.3333 13.6667C27.3333 10.9637 26.5318 8.32135 25.0301 6.07388C23.5284 3.82641 21.3939 2.07472 18.8967 1.04032C16.3994 0.00592151 13.6515 -0.264724 11.0004 0.262607C8.34937 0.789939 5.9142 2.09156 4.00288 4.00288C2.09156 5.9142 0.789939 8.34937 0.262607 11.0004C-0.264724 13.6515 0.00592151 16.3994 1.04032 18.8967C2.07472 21.3939 3.82641 23.5284 6.07388 25.0301C8.32135 26.5318 10.9637 27.3333 13.6667 27.3333C16.7018 27.3371 19.65 26.3203 22.0375 24.4463L27.8288 30.2546C27.9876 30.4147 28.1765 30.5418 28.3847 30.6285C28.5929 30.7153 28.8162 30.7599 29.0417 30.7599C29.2672 30.7599 29.4905 30.7153 29.6987 30.6285C29.9068 30.5418 30.0958 30.4147 30.2546 30.2546C30.4147 30.0958 30.5418 29.9068 30.6285 29.6987C30.7153 29.4905 30.7599 29.2672 30.7599 29.0417C30.7599 28.8162 30.7153 28.5929 30.6285 28.3847C30.5418 28.1765 30.4147 27.9876 30.2546 27.8288ZM3.41667 13.6667C3.41667 11.6394 4.01782 9.65768 5.14411 7.97208C6.27039 6.28647 7.87123 4.97271 9.74417 4.19691C11.6171 3.42111 13.678 3.21813 15.6663 3.61362C17.6547 4.00912 19.481 4.98534 20.9145 6.41883C22.348 7.85232 23.3242 9.67869 23.7197 11.667C24.1152 13.6553 23.9122 15.7162 23.1364 17.5892C22.3606 19.4621 21.0469 21.063 19.3613 22.1892C17.6757 23.3155 15.6939 23.9167 13.6667 23.9167C10.9482 23.9167 8.34108 22.8368 6.41883 20.9145C4.49658 18.9923 3.41667 16.3851 3.41667 13.6667Z" fill="#231F20"/>
</svg>
