<svg width="18" height="61" viewBox="0 0 18 61" fill="none" xmlns="http://www.w3.org/2000/svg">
<path d="M8.85484 21.6452C13.7496 21.6452 17.7097 25.6052 17.7097 30.5C17.7097 35.3948 13.7496 39.3548 8.85484 39.3548C3.96008 39.3548 0 35.3948 0 30.5C0 25.6052 3.96008 21.6452 8.85484 21.6452ZM0 8.85484C0 13.7496 3.96008 17.7097 8.85484 17.7097C13.7496 17.7097 17.7097 13.7496 17.7097 8.85484C17.7097 3.96008 13.7496 0 8.85484 0C3.96008 0 0 3.96008 0 8.85484ZM0 52.1452C0 57.0399 3.96008 61 8.85484 61C13.7496 61 17.7097 57.0399 17.7097 52.1452C17.7097 47.2504 13.7496 43.2903 8.85484 43.2903C3.96008 43.2903 0 47.2504 0 52.1452Z" fill="white"/>
</svg>
